<mxfile host="app.diagrams.net" modified="2021-05-11T01:35:24.000Z" agent="5.0 (Windows NT 10.0; Win64; x64) AppleWebKit/537.36 (KHTML, like Gecko) Chrome/90.0.4430.93 Safari/537.36" etag="uNunJEkja6ecpxdqyFKG" version="14.6.11" type="github">
  <diagram id="jeI8qbOsX_J9m7I9fRE5" name="Page-1">
    <mxGraphModel dx="1407" dy="2937" grid="1" gridSize="10" guides="1" tooltips="1" connect="1" arrows="1" fold="1" page="1" pageScale="1" pageWidth="850" pageHeight="1100" math="0" shadow="0">
      <root>
        <mxCell id="0" />
        <mxCell id="1" parent="0" />
        <mxCell id="U4fYlmRoL4_vissHVkAk-16" value="" style="swimlane;startSize=0;" vertex="1" parent="1">
          <mxGeometry x="20" y="130" width="850" height="980" as="geometry" />
        </mxCell>
        <mxCell id="U4fYlmRoL4_vissHVkAk-17" value="" style="rounded=0;whiteSpace=wrap;html=1;" vertex="1" parent="1">
          <mxGeometry x="60" y="160" width="720" height="120" as="geometry" />
        </mxCell>
        <mxCell id="U4fYlmRoL4_vissHVkAk-13" value="" style="strokeWidth=1;shadow=0;dashed=0;align=center;html=1;shape=mxgraph.mockup.containers.browserWindow;rSize=0;strokeColor=#666666;strokeColor2=#008cff;strokeColor3=#c4c4c4;mainText=,;recursiveResize=0;" vertex="1" parent="1">
          <mxGeometry y="-2200" width="850" height="1100" as="geometry" />
        </mxCell>
        <mxCell id="U4fYlmRoL4_vissHVkAk-14" value="Page 1" style="strokeWidth=1;shadow=0;dashed=0;align=center;html=1;shape=mxgraph.mockup.containers.anchor;fontSize=17;fontColor=#666666;align=left;" vertex="1" parent="U4fYlmRoL4_vissHVkAk-13">
          <mxGeometry x="60" y="12" width="110" height="26" as="geometry" />
        </mxCell>
        <mxCell id="U4fYlmRoL4_vissHVkAk-15" value="https://www.draw.io" style="strokeWidth=1;shadow=0;dashed=0;align=center;html=1;shape=mxgraph.mockup.containers.anchor;rSize=0;fontSize=17;fontColor=#666666;align=left;" vertex="1" parent="U4fYlmRoL4_vissHVkAk-13">
          <mxGeometry x="130" y="60" width="250" height="26" as="geometry" />
        </mxCell>
        <mxCell id="U4fYlmRoL4_vissHVkAk-18" value="" style="rounded=0;whiteSpace=wrap;html=1;" vertex="1" parent="U4fYlmRoL4_vissHVkAk-13">
          <mxGeometry x="60" y="140" width="200" height="170" as="geometry" />
        </mxCell>
        <mxCell id="U4fYlmRoL4_vissHVkAk-19" value="" style="rounded=0;whiteSpace=wrap;html=1;" vertex="1" parent="U4fYlmRoL4_vissHVkAk-13">
          <mxGeometry x="280" y="140" width="500" height="170" as="geometry" />
        </mxCell>
        <mxCell id="U4fYlmRoL4_vissHVkAk-20" value="" style="rounded=0;whiteSpace=wrap;html=1;" vertex="1" parent="U4fYlmRoL4_vissHVkAk-13">
          <mxGeometry x="60" y="340" width="200" height="170" as="geometry" />
        </mxCell>
        <mxCell id="U4fYlmRoL4_vissHVkAk-21" value="" style="rounded=0;whiteSpace=wrap;html=1;" vertex="1" parent="U4fYlmRoL4_vissHVkAk-13">
          <mxGeometry x="280" y="340" width="500" height="170" as="geometry" />
        </mxCell>
        <mxCell id="U4fYlmRoL4_vissHVkAk-22" value="" style="rounded=0;whiteSpace=wrap;html=1;" vertex="1" parent="U4fYlmRoL4_vissHVkAk-13">
          <mxGeometry x="65" y="540" width="720" height="120" as="geometry" />
        </mxCell>
      </root>
    </mxGraphModel>
  </diagram>
</mxfile>
